<?xml version="1.0" encoding="UTF-8" standalone="no"?>
<svg
   xmlns="http://www.w3.org/2000/svg" version="1.1"
   width="150" height="150" id="unix-manifests-logo">
  <rect id="background" x="0" y="0" width="150" height="150" fill="white" />
  <g id="pages" stroke-width="5px" stroke="#333" fill="white">
    <rect id="page_last" x="75" y="25" width="60" height="90" />
    <rect id="page_middle" x="65" y="35" width="60" height="90" />
    <rect id="page_front" x="55" y="45" width="60" height="90" />
    <path id="pages_lines" stroke="#333" fill="none"
          d="m 65,60 h 40
             M 65,75 h 40
             M 65,90 h 40
             M 65,105 h 40
             M 65,120 h 40" />
  </g>
  <g id="gear">
   <circle r="10" cy="115" cx="95" fill="white" id="gear_in"/>
   <path d="m95.64626,94.80492c-1.33451,0 -2.61826,0.15564 -3.875,0.40625l-0.625,5.0625c-1.01551,0.29801 -1.99494,0.68867 -2.90625,1.1875l-3.96875,-3c-1.89386,1.356 -3.57652,3.03147 -4.875,4.96875l3,3.875c-0.50185,0.91431 -0.88799,1.88682 -1.1875,2.90625l-4.75,0.65625c-0.19853,1.12435 -0.34375,2.2842 -0.34375,3.46875c0,1.20319 0.13906,2.35972 0.34375,3.5l4.71875,0.625c0.29901,1.0239 0.71574,1.98811 1.21875,2.90625l-2.96875,3.90625c1.30626,1.93623 2.9713,3.61832 4.875,4.96875l3.90625,-3.03125c0.91955,0.50489 1.91164,0.91861 2.9375,1.21875l0.6875,5.03125c1.23656,0.24146 2.50103,0.375 3.8125,0.375c1.06121,0 2.08014,-0.12172 3.09375,-0.28125l0.65625,-5.125c1.02594,-0.30075 2.01797,-0.71318 2.9375,-1.21875l4.3125,3.28125c1.89146,-1.28041 3.54324,-2.89835 4.875,-4.75l-3.375,-4.375c0.50116,-0.91681 0.8896,-1.88419 1.1875,-2.90625l5.53125,-0.78125c0.18677,-1.09126 0.3125,-2.19556 0.3125,-3.34375c0,-1.17239 -0.11794,-2.32399 -0.3125,-3.4375l-5.53125,-0.71875c-0.29974,-1.0174 -0.68618,-1.99369 -1.1875,-2.90625l3.34375,-4.40625c-1.32961,-1.83817 -2.99387,-3.44565 -4.875,-4.71875l-4.3125,3.3125c-0.91143,-0.49821 -1.89073,-0.89009 -2.90625,-1.1875l-0.71875,-5.21875c-0.99274,-0.1533 -1.99307,-0.25 -3.03125,-0.25zm-0.375,11.84375c4.23637,0 7.65625,3.45113 7.65625,7.6875c0,4.23636 -3.41988,7.65625 -7.65625,7.65625c-4.23637,0 -7.6875,-3.41989 -7.6875,-7.65625c0,-4.23637 3.45113,-7.6875 7.6875,-7.6875z" fill="#333" id="gear_out"/>
  </g>
  <g id="linux">
    <path id="linux_bg" style="fill:white"
          d="m 30.83579,27.64962 c -4.56692,1.43729 -2.50333,4.69538 -3.10337,8.38011 c -0.31158,0.60945 -3.26465,5.66661 -3.41763,7.71301 c -2.65112,8.93785 -0.80316,7.13269 5.74439,7.07875 c 7.23039,0.12722 8.15714,3.18156 8.02672,-6.10863 c -0.0557,-3.96931 -2.97319,-7.34463 -3.42104,-9.9674 c -0.53304,-3.0666 0.002,-6.68745 -3.829,-7.09584 c -0.49477,0.006 0.72981,0.0778 -2e-5,0 z" />
    <path id="linux_fg" fill="#333"
          d="m 30.70049,26.25378 c -0.91891,-0.0863 -3.5081,1.04568 -3.9655,2.9853 c -0.4574,1.93962 0.45029,5.63492 0.058,6.31101 c -0.39231,0.67609 -4.11055,6.28614 -4.30316,8.55628 c -0.19261,2.27013 -0.36109,1.84892 -1.84397,1.9723 c -1.48288,0.12339 -0.0532,2.30368 -0.70332,3.33555 c -0.65014,1.03187 -0.57593,2.2543 0.97917,2.32994 c 1.5551,0.0757 3.25925,0.80108 4.84715,1.33063 c 1.58791,0.52955 2.49527,-1.16696 3.95375,-1.11576 c 1.45849,0.0512 3.04454,-0.42526 4.2146,0.26341 c 1.17006,0.68868 2.52124,1.56868 3.68085,0.5618 c 1.15961,-1.00687 2.21618,-2.17007 3.75168,-2.63792 c 1.53549,-0.46785 0.78604,-1.97748 -0.30943,-2.39558 c -1.09547,-0.4181 -1.22673,-0.84233 -1.23121,-2.56818 c -0.005,-1.72584 -0.78034,-5.60628 -1.97899,-7.24561 C 36.65147,36.29762 35.84707,35.95124 35.52164,34.1254 C 35.1962,32.29955 35.25438,29.04276 34.07549,27.65546 c -1.1789,-1.38729 -2.75199,-1.40869 -3.37494,-1.40168 c -0.62297,0.007 0.91889,0.0863 -3e-5,0 z m 1.41338,5.81116 c -1.16606,0.16764 -1.66915,-1.81124 -0.49586,-1.99448 c 1.17329,-0.18324 1.66192,1.82684 0.49586,1.99448 z m -3.41126,0.0922 c -1.169,0.48572 -1.13912,-1.64555 -0.26413,-1.8842 c 0.87501,-0.23867 1.29694,1.40237 0.26413,1.8842 z m 1.31993,0.72547 c 0.79297,-0.0863 3.29421,0.0579 3.13327,1.13312 c -0.16093,1.07528 -2.14511,1.80333 -3.23598,1.91247 c -1.09086,0.10907 -2.34345,-1.65261 -1.8162,-2.17207 c 0.52724,-0.51945 1.12595,-0.78728 1.91891,-0.87352 z m 3.36122,2.97126 c 1.2595,2.00734 3.96538,7.03655 2.52226,9.1593 c -0.95496,1.24859 -1.6132,1.17008 -1.44358,2.39575 c 0.16961,1.22568 -1.32783,2.16668 -2.59437,2.64839 c -1.26654,0.48171 -4.06298,0.40526 -4.52378,-0.68473 c -0.4608,-1.09 1.45607,-0.96634 0.59627,-1.92806 c -0.8598,-0.96173 -2.06957,-1.18165 -2.75187,-2.46417 c -0.30203,-2.55528 1.21298,-6.74269 2.76826,-8.52857 c 0.68116,0.55296 1.33512,0.82807 2.45588,0.6314 c 1.12075,-0.19668 1.93347,-0.52845 2.97093,-1.22931 z" />
  </g>
  <path id="bsd" fill="#333"
        d="m 18.76956,68.1875 c -0.36465,0.0149 -0.67135,0.14016 -0.875,0.34375 c -0.94321,0.94304 0.41474,3.90833 1.59375,5.96875 c 1.04926,-1.82429 2.52244,-3.33614 4.3125,-4.4375 c -1.60659,-0.91157 -3.72893,-1.92856 -5.03125,-1.875 z m 24.25,0.15625 c -2.13878,0.0347 -6.43598,2.77947 -6.96875,3.3125 c -0.63126,0.63109 -0.0657,2.21598 1.28125,3.5625 c 1.34684,1.34701 2.96249,1.94275 3.59375,1.3125 c 0.63125,-0.63159 4.34702,-6.55956 3,-7.90625 c -0.21047,-0.21043 -0.51018,-0.28769 -0.90625,-0.28125 z m -11.75,0.9375 c -6.75358,0 -12.28125,5.40199 -12.28125,12.15625 c 0,6.75343 5.49624,12.21875 12.25,12.21875 c 6.75377,0 12.21875,-5.46515 12.21875,-12.21875 c 0,-2.18101 0.0314,-2.94555 -0.96875,-4.71875 c -1.41377,3.19829 -4.71487,1.06999 -6.3125,-0.375 c -2.52897,-2.57243 -2.81979,-5.4121 -0.25,-6.21875 c -1.68853,-0.88057 -2.61969,-0.84375 -4.65625,-0.84375 z" />
  <path id="apple" fill="#333"
        d="m 32.01001,111.29318 c 1.98909,0.006 3.30196,-1.13603 5.5379,-1.19647 c 2.23594,-0.0604 4.10435,1.27839 5.57207,2.8886 c -4.61505,2.62137 -4.30032,10.19886 0.83753,11.81077 c -1.14117,2.88049 -3.50641,7.96892 -6.66599,7.82827 c -1.66211,-0.074 -3.3041,-1.09946 -5.0935,-1.12809 c -1.7894,-0.0287 -3.11008,1.57065 -4.82003,1.17937 c -5.43923,-1.24466 -7.84409,-8.29799 -7.84535,-13.36617 c -0.001,-4.38698 2.63377,-9.10241 6.95656,-9.07601 c 2.01722,0.0479 3.53173,1.05442 5.52081,1.05973 z M 31.809,109.85577 c -0.17049,-3.94898 2.34108,-6.41431 5.743,-7.09331 c 0.4626,4.02231 -2.15995,6.80757 -5.743,7.09331 z" />
</svg>
